<?xml version="1.0" encoding="utf-8"?>
<!-- Generator: Adobe Illustrator 16.0.0, SVG Export Plug-In . SVG Version: 6.00 Build 0)  -->
<!DOCTYPE svg PUBLIC "-//W3C//DTD SVG 1.1//EN" "http://www.w3.org/Graphics/SVG/1.1/DTD/svg11.dtd">
<svg version="1.1" id="Layer_1" xmlns="http://www.w3.org/2000/svg" xmlns:xlink="http://www.w3.org/1999/xlink" x="0px" y="0px"
	 width="792px" height="612px" viewBox="0 0 792 612" enable-background="new 0 0 792 612" xml:space="preserve">
<g>
	<path fill="#FFFFFF" d="M231.254,378.92c0-48.544,0-97.089,0-145.657c110.117,0,220.248,0,330.423,0c0,48.537,0,97.097,0,145.657
		C451.561,378.92,341.415,378.92,231.254,378.92z M560.254,277.264c-0.077-0.08-0.155-0.159-0.232-0.238
		c-0.519,0.318-1.059,0.607-1.553,0.96c-2.075,1.486-4.098,3.049-6.213,4.475c-2.943,1.983-5.869,4.014-8.95,5.766
		c-5.23,2.975-10.507,5.888-15.896,8.558c-3.6,1.783-7.4,3.179-11.169,4.597c-1.935,0.728-3.971,1.461-6.002,1.6
		c-4.484,0.305-8.945-0.248-13.3-1.411c-0.498-0.133-1.038-0.633-1.279-1.105c-0.853-1.664-1.563-3.399-2.366-5.09
		c-0.939-1.98-2.202-3.668-4.111-4.873c-3.376-2.13-6.678-4.379-10.035-6.538c-3.492-2.244-7.014-4.444-10.526-6.655
		c-0.838-0.528-1.669-0.589-2.604-0.107c-1.005,0.519-1.259,0.232-1.324-0.942c-0.029-0.523-0.258-1.25-0.646-1.502
		c-2.24-1.455-4.569-2.773-6.841-4.183c-1.304-0.809-2.538-1.298-3.956-0.189c-0.466,0.365-1.334,0.309-1.048-0.562
		c0.54-1.641-0.437-2.363-1.562-2.912c-4.988-2.433-9.979-4.864-15.032-7.156c-3.588-1.628-7.265-3.068-10.927-4.528
		c-3.895-1.553-7.796-3.093-11.735-4.528c-4.127-1.502-8.288-2.914-12.46-4.289c-4.058-1.338-8.133-2.623-12.227-3.848
		c-2.675-0.801-5.388-1.478-8.095-2.167c-3.442-0.877-6.865-1.87-10.351-2.528c-5.928-1.119-11.892-2.05-17.853-2.984
		c-2.033-0.318-4.202-0.76-5.549,1.551c-0.037,0.063-0.117,0.119-0.189,0.144c-0.357,0.12-0.718,0.228-1.078,0.339
		c-0.08-0.332-0.246-0.669-0.224-0.995c0.064-0.955-0.397-1.441-1.286-1.541c-1.347-0.152-2.703-0.399-4.048-0.358
		c-5.352,0.164-10.708,0.326-16.049,0.686c-2.897,0.195-5.712,0.701-8.049,2.882c-5.648,5.271-10.841,10.961-15.875,16.8
		c-1.611,1.868-3.016,3.869-5.874,3.692c-0.302-0.019-0.611,0.188-0.925,0.236c-4.816,0.736-9.601,1.692-14.529,0.73
		c-3.101-0.605-6.211-0.276-9.215,0.787c-3.083,1.091-4.79,3.539-6.319,6.235c-1.351,2.382-2.61,4.829-4.946,6.528
		c-2.607,1.896-5.168,3.878-7.574,6.021c-5.818,5.179-9.983,11.484-12.247,18.968c-0.273,0.905-0.287,1.995-0.065,2.914
		c0.24,0.994,0.25,1.821-0.153,2.765c-1.879,4.396-2.887,8.976-2.571,13.781c0.031,0.476,0.451,0.926,0.69,1.388
		c0.383-0.333,0.93-0.591,1.125-1.011c1.731-3.732,4.418-6.731,7.259-9.615c0.728-0.738,1.502-1.436,2.301-2.097
		c0.203-0.168,0.653-0.262,0.853-0.148c0.198,0.112,0.285,0.525,0.307,0.814c0.02,0.266-0.099,0.547-0.181,0.813
		c-1.15,3.754-0.919,7.591-0.681,11.427c0.015,0.247,0.177,0.484,0.367,0.972c0.426-0.562,0.772-0.924,1.01-1.347
		c1.832-3.269,3.593-6.578,5.492-9.807c0.554-0.941,1.374-1.817,2.272-2.432c0.537-0.367,1.462-0.167,2.213-0.222
		c-0.01,0.585,0.143,1.232-0.057,1.743c-0.896,2.295-0.803,4.621-0.387,6.972c0.048,0.274,0.263,0.52,0.529,1.02
		c0.46-0.68,0.81-1.142,1.101-1.637c1.246-2.12,2.695-4.069,4.649-5.594c0.955-0.744,1.996-1.164,3.235-0.683
		c1.117,0.433,2.331,0.68,3.357,1.264c1.159,0.658,2.36,1.434,3.189,2.447c3.488,4.265,6.89,8.603,10.235,12.98
		c2.652,3.469,4.907,7.189,6.325,11.354c0.188,0.552,0.378,1.456,0.104,1.724c-0.341,0.334-1.162,0.195-1.777,0.218
		c-0.23,0.009-0.47-0.09-0.698-0.163c-2.353-0.764-4.665-1.694-7.064-2.262c-4.078-0.966-8.188-1.837-12.325-2.493
		c-3.149-0.499-6.36-0.612-9.546-0.876c-0.866-0.071-1.454-0.457-1.634-1.312c-0.267-1.266-0.473-2.544-0.723-3.813
		c-0.058-0.294-0.192-0.573-0.291-0.858c-0.265,0.122-0.628,0.172-0.779,0.378c-0.963,1.314-1.87,2.671-2.815,3.999
		c-0.298,0.419-0.656,0.795-0.987,1.189c-0.383-0.412-0.961-0.763-1.117-1.249c-0.733-2.279-1.346-4.599-2.013-6.899
		c-0.121-0.417-0.295-0.819-0.552-1.52c-0.527,0.702-0.889,1.11-1.168,1.568c-1.396,2.283-2.307,4.728-2.458,7.431
		c-0.02,0.356-0.281,0.7-0.431,1.05c-0.375-0.187-0.78-0.331-1.112-0.575c-0.208-0.154-0.354-0.442-0.446-0.699
		c-1.009-2.812-1.995-5.631-3.009-8.439c-0.112-0.31-0.327-0.756-0.558-0.8c-0.259-0.049-0.702,0.217-0.869,0.473
		c-0.5,0.764-1.072,1.543-1.316,2.401c-0.774,2.723-1.37,5.497-2.133,8.224c-0.201,0.717-0.61,1.527-1.178,1.962
		c-1.516,1.161-1.938,2.606-1.479,4.345c0.572,2.165,1.51,4.081,3.503,5.388c1.867,1.223,3.536,2.754,5.425,3.938
		c5.172,3.244,10.346,6.498,15.653,9.513c3.676,2.088,7.538,3.863,11.385,5.631c3.367,1.547,6.791,2.991,10.26,4.291
		c3.319,1.243,6.722,2.271,10.104,3.339c2.851,0.9,5.693,1.859,8.596,2.556c7.196,1.728,14.473,3.064,21.849,3.741
		c12.719,1.168,25.395,0.916,37.99-1.387c2.594-0.474,5.204-0.9,7.761-1.534c5.85-1.451,11.636-3.126,17.259-5.33
		c0.498-0.195,1.202-0.102,1.736,0.077c1.625,0.544,3.198,1.239,4.819,1.798c4.936,1.701,9.859,3.442,14.834,5.021
		c4.712,1.495,9.53,2.485,14.522,1.842c2.693-0.347,5.384-0.75,8.05-1.258c0.481-0.091,1.141-0.773,1.201-1.248
		c0.155-1.235,0.747-1.255,1.637-0.889c2.214,0.912,4.379,0.687,6.521-0.245c0.146-0.064,0.305-0.097,0.456-0.148
		c6.343-2.15,12.748-4.135,19.008-6.505c5.252-1.989,10.362-4.366,15.484-6.684c6.998-3.166,13.755-6.798,20.166-11.036
		c2.161-1.429,4.229-3.014,6.248-4.64c2.442-1.968,3.003-5.139,1.436-7.885c-0.666-1.168-1.548-2.211-2.288-3.34
		c-0.199-0.305-0.238-0.715-0.352-1.077c0.359-0.088,0.715-0.201,1.079-0.252c0.188-0.025,0.396,0.045,0.587,0.102
		c4.017,1.194,7.771,2.914,11.042,5.579c4.645,3.784,9.199,7.683,13.934,11.351c4.545,3.522,9.216,6.889,13.93,10.184
		c5.067,3.542,10.169,7.052,15.804,9.676c0.217,0.101,0.509,0.04,0.766,0.055c-0.019-0.255,0.034-0.544-0.068-0.759
		c-0.849-1.795-1.82-3.537-2.576-5.369c-2.229-5.404-3.862-11.01-4.923-16.743c-1.312-7.086-2.079-14.246-1.564-21.476
		c0.215-3.028,0.475-6.059,0.879-9.065c0.721-5.365,2.122-10.572,3.886-15.688c0.152-0.443,0.053-1.152-0.219-1.531
		c-1.09-1.521-1.012-1.678,0.542-2.852c0.986-0.746,1.93-1.692,2.551-2.75c1.451-2.471,2.596-5.123,4.055-7.589
		c1.44-2.437,3.118-4.733,4.681-7.099C559.898,278.015,560.062,277.63,560.254,277.264z"/>
	<path fill-rule="evenodd" clip-rule="evenodd" d="M560.254,277.264c-0.192,0.366-0.355,0.751-0.582,1.094
		c-1.562,2.365-3.24,4.662-4.681,7.099c-1.459,2.467-2.604,5.119-4.055,7.589c-0.621,1.057-1.564,2.004-2.551,2.75
		c-1.554,1.173-1.632,1.33-0.542,2.852c0.271,0.379,0.371,1.088,0.219,1.531c-1.764,5.116-3.165,10.323-3.886,15.688
		c-0.404,3.007-0.664,6.037-0.879,9.065c-0.515,7.229,0.253,14.39,1.564,21.476c1.061,5.733,2.693,11.339,4.923,16.743
		c0.756,1.832,1.728,3.574,2.576,5.369c0.103,0.215,0.05,0.504,0.068,0.759c-0.257-0.015-0.549,0.046-0.766-0.055
		c-5.635-2.624-10.736-6.134-15.804-9.676c-4.714-3.295-9.385-6.661-13.93-10.184c-4.734-3.668-9.289-7.566-13.934-11.351
		c-3.271-2.665-7.025-4.385-11.042-5.579c-0.19-0.057-0.398-0.127-0.587-0.102c-0.364,0.051-0.72,0.164-1.079,0.252
		c0.113,0.362,0.152,0.772,0.352,1.077c0.74,1.129,1.622,2.172,2.288,3.34c1.567,2.746,1.007,5.917-1.436,7.885
		c-2.02,1.626-4.087,3.211-6.248,4.64c-6.411,4.238-13.168,7.87-20.166,11.036c-5.122,2.317-10.232,4.694-15.484,6.684
		c-6.26,2.37-12.665,4.354-19.008,6.505c-0.151,0.052-0.311,0.084-0.456,0.148c-2.143,0.932-4.308,1.157-6.521,0.245
		c-0.89-0.366-1.481-0.347-1.637,0.889c-0.061,0.475-0.72,1.157-1.201,1.248c-2.666,0.508-5.356,0.911-8.05,1.258
		c-4.992,0.644-9.811-0.347-14.522-1.842c-4.975-1.579-9.898-3.32-14.834-5.021c-1.621-0.559-3.194-1.254-4.819-1.798
		c-0.535-0.179-1.238-0.272-1.736-0.077c-5.624,2.204-11.41,3.879-17.259,5.33c-2.557,0.634-5.167,1.061-7.761,1.534
		c-12.595,2.303-25.271,2.555-37.99,1.387c-7.376-0.677-14.652-2.014-21.849-3.741c-2.903-0.696-5.746-1.655-8.596-2.556
		c-3.383-1.068-6.785-2.096-10.104-3.339c-3.47-1.3-6.893-2.744-10.26-4.291c-3.847-1.768-7.708-3.543-11.385-5.631
		c-5.307-3.015-10.48-6.269-15.653-9.513c-1.889-1.185-3.558-2.716-5.425-3.938c-1.994-1.307-2.932-3.223-3.503-5.388
		c-0.459-1.738-0.037-3.184,1.479-4.345c0.568-0.435,0.977-1.245,1.178-1.962c0.763-2.727,1.359-5.501,2.133-8.224
		c0.244-0.858,0.816-1.638,1.316-2.401c0.167-0.256,0.61-0.521,0.869-0.473c0.231,0.044,0.446,0.49,0.558,0.8
		c1.014,2.809,2,5.628,3.009,8.439c0.092,0.257,0.238,0.545,0.446,0.699c0.332,0.244,0.737,0.389,1.112,0.575
		c0.149-0.35,0.411-0.693,0.431-1.05c0.151-2.703,1.062-5.147,2.458-7.431c0.28-0.458,0.642-0.866,1.168-1.568
		c0.256,0.7,0.431,1.103,0.552,1.52c0.667,2.301,1.28,4.62,2.013,6.899c0.156,0.486,0.734,0.837,1.117,1.249
		c0.331-0.395,0.689-0.771,0.987-1.189c0.945-1.328,1.852-2.685,2.815-3.999c0.15-0.206,0.514-0.256,0.779-0.378
		c0.099,0.285,0.233,0.564,0.291,0.858c0.25,1.27,0.457,2.548,0.723,3.813c0.18,0.855,0.768,1.241,1.634,1.312
		c3.186,0.264,6.396,0.377,9.546,0.876c4.137,0.656,8.248,1.527,12.325,2.493c2.399,0.567,4.711,1.498,7.064,2.262
		c0.228,0.073,0.467,0.172,0.698,0.163c0.615-0.022,1.436,0.116,1.777-0.218c0.274-0.268,0.083-1.172-0.104-1.724
		c-1.418-4.164-3.673-7.885-6.325-11.354c-3.345-4.378-6.747-8.716-10.235-12.98c-0.829-1.014-2.03-1.789-3.189-2.447
		c-1.026-0.584-2.24-0.831-3.357-1.264c-1.24-0.481-2.281-0.062-3.235,0.683c-1.954,1.524-3.404,3.474-4.649,5.594
		c-0.291,0.495-0.641,0.957-1.101,1.637c-0.266-0.5-0.48-0.745-0.529-1.02c-0.416-2.351-0.509-4.677,0.387-6.972
		c0.199-0.511,0.047-1.158,0.057-1.743c-0.751,0.055-1.676-0.145-2.213,0.222c-0.898,0.614-1.718,1.49-2.272,2.432
		c-1.898,3.229-3.66,6.538-5.492,9.807c-0.237,0.423-0.583,0.784-1.01,1.347c-0.19-0.487-0.352-0.725-0.367-0.972
		c-0.239-3.836-0.47-7.673,0.681-11.427c0.082-0.267,0.2-0.548,0.181-0.813c-0.021-0.289-0.108-0.702-0.307-0.814
		c-0.2-0.114-0.65-0.02-0.853,0.148c-0.798,0.662-1.573,1.359-2.301,2.097c-2.841,2.884-5.528,5.883-7.259,9.615
		c-0.195,0.42-0.741,0.678-1.125,1.011c-0.239-0.462-0.659-0.912-0.69-1.388c-0.316-4.806,0.692-9.385,2.571-13.781
		c0.403-0.944,0.394-1.771,0.153-2.765c-0.222-0.918-0.208-2.009,0.065-2.914c2.264-7.484,6.429-13.789,12.247-18.968
		c2.406-2.142,4.967-4.125,7.574-6.021c2.336-1.699,3.595-4.146,4.946-6.528c1.529-2.696,3.235-5.144,6.319-6.235
		c3.004-1.063,6.114-1.392,9.215-0.787c4.928,0.962,9.713,0.005,14.529-0.73c0.314-0.048,0.623-0.255,0.925-0.236
		c2.857,0.177,4.263-1.824,5.874-3.692c5.034-5.839,10.227-11.529,15.875-16.8c2.337-2.181,5.152-2.687,8.049-2.882
		c5.341-0.36,10.697-0.522,16.049-0.686c1.345-0.041,2.701,0.206,4.048,0.358c0.889,0.1,1.35,0.586,1.286,1.541
		c-0.022,0.326,0.144,0.663,0.224,0.995c0.36-0.112,0.721-0.22,1.078-0.339c0.072-0.024,0.152-0.08,0.189-0.144
		c1.347-2.311,3.516-1.869,5.549-1.551c5.961,0.934,11.925,1.865,17.853,2.984c3.485,0.658,6.908,1.651,10.351,2.528
		c2.707,0.689,5.42,1.366,8.095,2.167c4.093,1.225,8.169,2.51,12.227,3.848c4.172,1.375,8.333,2.786,12.46,4.289
		c3.939,1.435,7.841,2.975,11.735,4.528c3.662,1.46,7.339,2.9,10.927,4.528c5.054,2.292,10.044,4.723,15.032,7.156
		c1.126,0.549,2.103,1.271,1.562,2.912c-0.286,0.87,0.582,0.926,1.048,0.562c1.418-1.109,2.652-0.62,3.956,0.189
		c2.271,1.409,4.601,2.728,6.841,4.183c0.388,0.251,0.616,0.979,0.646,1.502c0.065,1.174,0.319,1.46,1.324,0.942
		c0.935-0.482,1.766-0.42,2.604,0.107c3.513,2.211,7.034,4.411,10.526,6.655c3.357,2.158,6.659,4.408,10.035,6.538
		c1.909,1.205,3.172,2.893,4.111,4.873c0.803,1.69,1.514,3.426,2.366,5.09c0.241,0.472,0.781,0.972,1.279,1.105
		c4.354,1.163,8.815,1.715,13.3,1.411c2.031-0.138,4.067-0.872,6.002-1.6c3.769-1.418,7.569-2.813,11.169-4.597
		c5.39-2.67,10.666-5.583,15.896-8.558c3.081-1.752,6.007-3.783,8.95-5.766c2.115-1.426,4.138-2.989,6.213-4.475
		c0.494-0.353,1.034-0.642,1.553-0.96C560.099,277.105,560.177,277.185,560.254,277.264z M340.553,246.973
		c-0.227-0.169-0.454-0.339-0.68-0.508c0.123-0.479,0.215-0.967,0.374-1.434c0.798-2.343,1.646-4.669,2.409-7.023
		c0.44-1.358,0.063-1.847-1.366-1.926c-6.322-0.346-12.633-0.142-18.916,0.602c-1.962,0.232-3.909,0.671-5.421,2.228
		c-3.005,3.096-6.129,6.075-9.127,9.177c-2.25,2.328-4.389,4.763-6.547,7.176c-0.26,0.291-0.337,0.745-0.5,1.123
		c0.392,0.146,0.777,0.316,1.179,0.426c0.181,0.05,0.395-0.025,0.595-0.037c3.869-0.235,7.737-0.667,11.606-0.665
		c8.276,0.004,16.543,0.408,24.762,1.475c3.087,0.401,6.168,0.85,9.25,1.287c0.187,0.026,0.361,0.146,0.541,0.222
		c-0.521,0.221-0.996,0.254-1.465,0.216c-3.739-0.304-7.478-0.604-11.214-0.937c-9.694-0.866-19.395-1.302-29.097-0.222
		c-4.084,0.455-8.163,1.021-12.212,1.721c-5.604,0.97-11.179,2.061-16.898,1.016c-2.699-0.494-5.347-0.18-7.926,0.675
		c-2.619,0.868-4.078,2.95-5.333,5.241c-1.519,2.774-3.076,5.516-5.764,7.395c-1.603,1.121-3.192,2.271-4.7,3.514
		c-4.478,3.689-8.411,7.885-11.15,13.038c-1.17,2.2-1.917,4.622-2.919,6.915c-0.778,1.778-0.679,2.354,0.914,3.396
		c0.427,0.279,0.922,0.469,1.406,0.645c4.176,1.52,8.624,0.969,12.919,1.66c5.174,0.832,10.339,1.636,15.285,3.405
		c1.837,0.657,3.556,1.613,4.794,3.251c0.817,1.08,1.749,2.072,2.614,3.115c4.49,5.413,8.879,10.914,12.169,17.158
		c1.117,2.118,1.864,4.481,2.444,6.816c0.42,1.689-0.623,2.689-2.392,2.527c-1.375-0.126-2.736-0.522-4.075-0.9
		c-2.612-0.737-5.163-1.748-7.812-2.279c-4.774-0.959-9.576-1.941-14.415-2.366c-4.959-0.437-9.988-0.463-14.963-0.21
		c-4.45,0.228-8.868,1.08-13.3,1.656c-1.103,0.143-2.171,1.217-1.861,2.222c0.413,1.334,0.871,2.913,1.851,3.763
		c2.525,2.188,5.247,4.195,8.076,5.979c4.927,3.106,9.899,6.167,15.03,8.916c4.881,2.616,9.928,4.95,15.015,7.146
		c3.876,1.673,7.884,3.081,11.915,4.347c5.325,1.671,10.674,3.348,16.118,4.539c5.492,1.202,11.09,2.021,16.683,2.642
		c12.794,1.421,25.562,0.986,38.232-1.336c4.197-0.769,8.364-1.756,12.487-2.858c3.307-0.885,6.534-2.072,9.782-3.169
		c3.404-1.149,6.796-2.335,10.184-3.534c3.083-1.092,6.146-2.243,9.231-3.33c2.48-0.873,4.991-1.661,7.471-2.537
		c3.27-1.156,6.515-2.381,9.782-3.539c3.344-1.185,6.71-2.305,10.053-3.49c3.196-1.133,6.365-2.345,9.565-3.465
		c5.195-1.818,10.417-3.56,15.608-5.391c6.208-2.188,12.391-4.451,18.593-6.655c5.268-1.873,10.542-3.728,15.83-5.543
		c0.934-0.32,1.944-0.549,2.927-0.574c5.911-0.154,11.471,1.131,16.706,3.973c4.198,2.278,7.557,5.602,11.229,8.54
		c3.898,3.118,7.771,6.272,11.732,9.31c2.691,2.064,5.492,3.988,8.285,5.916c3.482,2.403,6.998,4.759,10.526,7.095
		c0.3,0.198,0.852,0.211,1.189,0.073c0.159-0.064,0.204-0.729,0.098-1.057c-0.22-0.68-0.664-1.289-0.859-1.973
		c-1.229-4.296-2.549-8.571-3.585-12.915c-1.874-7.859-2.552-15.858-2.115-23.929c0.374-6.924,1.282-13.771,3.421-20.406
		c0.33-1.024,0.665-2.047,0.972-3.079c0.373-1.254,0.039-1.74-1.245-1.788c-0.798-0.029-1.6,0.033-2.396,0.001
		c-0.422-0.017-0.84-0.146-1.26-0.224c-0.013-0.112-0.026-0.223-0.04-0.334c0.268-0.208,0.522-0.435,0.804-0.621
		c1.2-0.796,2.354-1.681,3.622-2.349c4.074-2.148,5.145-6.434,7.234-9.994c0.093-0.158,0.049-0.522-0.075-0.645
		c-0.117-0.116-0.443-0.099-0.643-0.034c-0.299,0.098-0.578,0.272-0.847,0.444c-2.189,1.394-4.332,2.864-6.568,4.177
		c-3.753,2.203-7.463,4.518-11.377,6.4c-5.137,2.471-10.425,4.636-15.703,6.798c-3.116,1.276-6.378,2.202-9.804,1.836
		c-3.805-0.407-7.612-0.853-11.381-1.504c-2.905-0.502-5.752-1.34-8.619-2.052c-0.334-0.083-0.631-0.315-0.945-0.479
		c0.044-0.131,0.087-0.262,0.13-0.394c1.276,0.235,2.554,0.465,3.829,0.707c0.705,0.134,1.4,0.342,2.11,0.416
		c0.974,0.102,1.312-0.441,0.889-1.336c-0.562-1.189-1.04-2.429-1.717-3.549c-0.837-1.388-1.601-2.98-2.824-3.94
		c-2.408-1.888-5.109-3.4-7.691-5.066c-4.393-2.836-8.772-5.692-13.201-8.472c-0.431-0.271-1.281-0.293-1.729-0.049
		c-2.383,1.292-4.696,2.712-7.042,4.074c-0.591,0.343-1.214,0.632-1.821,0.946c-0.095-0.109-0.189-0.218-0.284-0.327
		c0.393-0.562,0.762-1.141,1.181-1.682c1.245-1.611,2.522-3.197,3.76-4.813c0.614-0.802,0.446-1.453-0.451-1.967
		c-1.729-0.99-3.474-1.961-5.138-3.054c-1.19-0.782-2.17-0.544-3.162,0.26c-1.799,1.457-3.59,2.924-5.397,4.37
		c-0.341,0.273-0.742,0.472-1.116,0.705c-0.086-0.073-0.173-0.146-0.259-0.218c0.154-0.421,0.272-0.86,0.47-1.26
		c0.922-1.86,1.895-3.696,2.791-5.568c0.552-1.152,0.351-1.807-0.787-2.364c-4.016-1.966-8.025-3.948-12.096-5.796
		c-3.594-1.632-7.257-3.116-10.908-4.619c-2.766-1.139-5.554-2.226-8.346-3.297c-2.344-0.899-4.7-1.764-7.064-2.605
		c-4.212-1.5-8.419-3.018-12.659-4.438c-2.951-0.989-5.943-1.857-8.934-2.725c-3.722-1.079-7.425-2.253-11.198-3.112
		c-6.037-1.373-12.114-2.57-18.194-3.74c-2.939-0.566-5.919-0.924-8.886-1.331c-1.096-0.15-2.154-0.05-2.939,0.929
		c-2.175,2.709-4.378,5.396-6.548,8.11C340.996,246.039,340.803,246.528,340.553,246.973z M419.568,368.999
		c0.092-0.138,0.183-0.274,0.274-0.411c1.182,0.455,2.365,0.906,3.546,1.367c2.3,0.897,4.584,1.839,6.906,2.675
		c0.606,0.219,1.387,0.309,1.988,0.128c4.696-1.408,9.408-2.785,14.037-4.396c3.911-1.359,7.75-2.942,11.563-4.563
		c4.992-2.121,10.037-4.161,14.856-6.633c5.751-2.948,11.349-6.216,16.888-9.552c2.267-1.365,4.221-3.256,6.29-4.94
		c0.935-0.761,1.251-1.888,0.863-2.937c-0.558-1.511-1.226-3.043-2.163-4.337c-1.649-2.275-3.458-4.538-6.835-3.793
		c-0.973,0.215-1.953,0.434-2.889,0.765c-3.611,1.276-7.2,2.616-10.81,3.898c-3.497,1.242-7.014,2.433-10.515,3.665
		c-4.366,1.537-8.723,3.105-13.091,4.639c-3.011,1.058-6.041,2.058-9.05,3.122c-3.572,1.265-7.125,2.585-10.697,3.854
		c-3.039,1.079-6.101,2.096-9.137,3.181c-3.267,1.167-6.502,2.42-9.775,3.567c-4.284,1.502-8.596,2.927-12.887,4.407
		c-3.728,1.286-7.449,2.591-11.158,3.928c-0.395,0.143-0.69,0.561-1.032,0.852c0.313,0.363,0.558,0.874,0.955,1.062
		c0.932,0.439,1.926,0.759,2.913,1.067c5.743,1.796,11.473,3.64,17.244,5.339c5.176,1.524,10.378,0.964,15.543-0.191
		c0.979-0.22,1.134-0.679,0.466-1.424c-0.718-0.801-1.541-1.507-2.302-2.271C420.887,370.388,420.232,369.688,419.568,368.999z
		 M236.486,312.649c0.131,0.299,0.297,0.679,0.464,1.06c0.297-0.147,0.709-0.216,0.874-0.454c1.909-2.776,4.063-5.322,6.644-7.51
		c0.778-0.661,0.486-1.382-0.488-1.624c-1.002-0.248-2.003-0.52-2.979-0.856c-1.141-0.394-1.701-0.19-2.136,0.947
		c-0.385,1.007-0.804,2.009-1.085,3.046C237.309,308.991,236.936,310.75,236.486,312.649z M237.376,333.542
		c1.189-0.251,2.567-0.485,3.898-0.877c0.225-0.065,0.463-0.89,0.333-1.222c-0.723-1.85-1.533-3.668-2.375-5.468
		c-0.177-0.379-0.614-0.637-0.931-0.95c-0.251,0.333-0.634,0.632-0.731,1.005c-0.534,2.043-0.999,4.104-1.486,6.159
		C235.863,333.125,236.262,333.555,237.376,333.542z M247.828,312.597c0.141,0.288,0.32,0.654,0.499,1.021
		c0.344-0.222,0.741-0.393,1.017-0.68c0.268-0.279,0.402-0.684,0.611-1.023c0.897-1.46,1.721-2.973,2.719-4.359
		c1.685-2.342,1.731-2.308-1.115-2.745c-1.301-0.2-2.027,0.162-2.347,1.429C248.695,308.286,248.306,310.367,247.828,312.597z
		 M247.623,332.135c0.215-0.024,0.614-0.052,1.006-0.116c0.888-0.145,1.091-0.685,0.826-1.481c-0.363-1.092-0.681-2.201-1.107-3.268
		c-0.155-0.39-0.564-0.677-0.858-1.011c-0.3,0.336-0.747,0.625-0.871,1.017c-0.335,1.057-0.585,2.148-0.771,3.243
		C245.653,331.664,246.185,332.158,247.623,332.135z M258.821,309.866c0.102,0.229,0.158,0.64,0.362,0.737
		c0.205,0.097,0.647-0.028,0.83-0.212c0.786-0.789,1.545-1.609,2.247-2.473c0.241-0.297,0.498-0.862,0.37-1.105
		c-0.155-0.293-0.752-0.569-1.086-0.502c-0.579,0.118-1.313,0.368-1.603,0.812C259.431,307.904,259.206,308.873,258.821,309.866z
		 M256.375,330.846c-0.536-0.56-0.878-0.917-1.22-1.274c-0.345,0.43-0.821,0.819-0.972,1.31c-0.062,0.201,0.558,0.846,0.9,0.873
		C255.419,331.779,255.797,331.278,256.375,330.846z"/>
	<path fill-rule="evenodd" clip-rule="evenodd" fill="#FFFFFF" d="M340.553,246.973c0.25-0.445,0.443-0.935,0.758-1.328
		c2.17-2.714,4.373-5.401,6.548-8.11c0.785-0.979,1.843-1.079,2.939-0.929c2.967,0.407,5.947,0.765,8.886,1.331
		c6.08,1.17,12.158,2.368,18.194,3.74c3.773,0.859,7.477,2.033,11.198,3.112c2.99,0.867,5.983,1.736,8.934,2.725
		c4.24,1.42,8.447,2.938,12.659,4.438c2.364,0.841,4.721,1.707,7.064,2.605c2.792,1.071,5.58,2.158,8.346,3.297
		c3.651,1.503,7.314,2.987,10.908,4.619c4.07,1.848,8.08,3.83,12.096,5.796c1.138,0.557,1.339,1.211,0.787,2.364
		c-0.896,1.872-1.869,3.708-2.791,5.568c-0.197,0.399-0.315,0.839-0.47,1.26c0.086,0.073,0.173,0.146,0.259,0.218
		c0.374-0.233,0.775-0.431,1.116-0.705c1.808-1.446,3.599-2.914,5.397-4.37c0.992-0.804,1.972-1.042,3.162-0.26
		c1.664,1.092,3.409,2.063,5.138,3.054c0.897,0.514,1.065,1.165,0.451,1.967c-1.237,1.617-2.515,3.202-3.76,4.813
		c-0.419,0.541-0.788,1.12-1.181,1.682c0.095,0.109,0.189,0.218,0.284,0.327c0.607-0.314,1.23-0.603,1.821-0.946
		c2.346-1.361,4.659-2.782,7.042-4.074c0.448-0.244,1.299-0.222,1.729,0.049c4.429,2.78,8.809,5.636,13.201,8.472
		c2.582,1.667,5.283,3.179,7.691,5.066c1.224,0.959,1.987,2.552,2.824,3.94c0.677,1.12,1.155,2.36,1.717,3.549
		c0.423,0.895,0.085,1.438-0.889,1.336c-0.71-0.074-1.405-0.282-2.11-0.416c-1.275-0.241-2.553-0.472-3.829-0.707
		c-0.043,0.131-0.086,0.262-0.13,0.394c0.314,0.163,0.611,0.396,0.945,0.479c2.867,0.712,5.714,1.55,8.619,2.052
		c3.769,0.651,7.576,1.098,11.381,1.504c3.426,0.366,6.688-0.56,9.804-1.836c5.278-2.162,10.566-4.328,15.703-6.798
		c3.914-1.882,7.624-4.197,11.377-6.4c2.236-1.312,4.379-2.783,6.568-4.177c0.269-0.171,0.548-0.346,0.847-0.444
		c0.199-0.065,0.525-0.082,0.643,0.034c0.124,0.123,0.168,0.487,0.075,0.645c-2.09,3.56-3.16,7.846-7.234,9.994
		c-1.268,0.668-2.422,1.553-3.622,2.349c-0.281,0.187-0.536,0.413-0.804,0.621c0.014,0.111,0.027,0.223,0.04,0.334
		c0.42,0.078,0.838,0.207,1.26,0.224c0.797,0.032,1.599-0.03,2.396-0.001c1.284,0.048,1.618,0.534,1.245,1.788
		c-0.307,1.032-0.642,2.055-0.972,3.079c-2.139,6.635-3.047,13.482-3.421,20.406c-0.437,8.07,0.241,16.069,2.115,23.929
		c1.036,4.344,2.356,8.619,3.585,12.915c0.195,0.684,0.64,1.293,0.859,1.973c0.106,0.327,0.062,0.992-0.098,1.057
		c-0.338,0.138-0.89,0.125-1.189-0.073c-3.528-2.336-7.044-4.691-10.526-7.095c-2.793-1.928-5.594-3.852-8.285-5.916
		c-3.962-3.037-7.834-6.191-11.732-9.31c-3.673-2.938-7.031-6.262-11.229-8.54c-5.235-2.842-10.795-4.127-16.706-3.973
		c-0.982,0.025-1.993,0.254-2.927,0.574c-5.288,1.815-10.562,3.67-15.83,5.543c-6.202,2.204-12.385,4.467-18.593,6.655
		c-5.191,1.831-10.413,3.572-15.608,5.391c-3.2,1.12-6.369,2.332-9.565,3.465c-3.343,1.186-6.709,2.306-10.053,3.49
		c-3.268,1.158-6.513,2.383-9.782,3.539c-2.479,0.876-4.99,1.664-7.471,2.537c-3.085,1.087-6.148,2.238-9.231,3.33
		c-3.387,1.199-6.779,2.385-10.184,3.534c-3.248,1.097-6.476,2.284-9.782,3.169c-4.124,1.103-8.291,2.09-12.487,2.858
		c-12.669,2.322-25.438,2.757-38.232,1.336c-5.592-0.62-11.19-1.439-16.683-2.642c-5.444-1.191-10.792-2.868-16.118-4.539
		c-4.031-1.266-8.039-2.674-11.915-4.347c-5.087-2.195-10.134-4.529-15.015-7.146c-5.13-2.749-10.103-5.81-15.03-8.916
		c-2.829-1.783-5.55-3.79-8.076-5.979c-0.98-0.85-1.438-2.429-1.851-3.763c-0.31-1.005,0.758-2.079,1.861-2.222
		c4.432-0.576,8.85-1.429,13.3-1.656c4.975-0.253,10.004-0.227,14.963,0.21c4.839,0.425,9.641,1.407,14.415,2.366
		c2.649,0.531,5.201,1.542,7.812,2.279c1.339,0.378,2.7,0.774,4.075,0.9c1.769,0.162,2.812-0.838,2.392-2.527
		c-0.581-2.335-1.328-4.698-2.444-6.816c-3.29-6.244-7.679-11.745-12.169-17.158c-0.865-1.043-1.797-2.035-2.614-3.115
		c-1.238-1.638-2.957-2.594-4.794-3.251c-4.946-1.769-10.11-2.573-15.285-3.405c-4.295-0.691-8.743-0.14-12.919-1.66
		c-0.484-0.176-0.979-0.365-1.406-0.645c-1.593-1.042-1.692-1.619-0.914-3.396c1.003-2.293,1.75-4.714,2.919-6.915
		c2.739-5.153,6.673-9.349,11.15-13.038c1.508-1.243,3.098-2.393,4.7-3.514c2.688-1.879,4.246-4.621,5.764-7.395
		c1.254-2.291,2.714-4.373,5.333-5.241c2.58-0.855,5.227-1.169,7.926-0.675c5.719,1.045,11.294-0.045,16.898-1.016
		c4.049-0.701,8.128-1.267,12.212-1.721c9.702-1.08,19.403-0.644,29.097,0.222c3.736,0.333,7.475,0.633,11.214,0.937
		c0.469,0.038,0.944,0.005,1.465-0.216c-0.18-0.076-0.354-0.196-0.541-0.222c-3.082-0.438-6.163-0.886-9.25-1.287
		c-8.219-1.066-16.486-1.47-24.762-1.475c-3.869-0.002-7.738,0.429-11.606,0.665c-0.2,0.012-0.414,0.087-0.595,0.037
		c-0.402-0.109-0.787-0.28-1.179-0.426c0.162-0.378,0.239-0.833,0.5-1.123c2.159-2.413,4.298-4.849,6.547-7.176
		c2.998-3.102,6.123-6.082,9.127-9.177c1.512-1.557,3.458-1.995,5.421-2.228c6.283-0.744,12.594-0.948,18.916-0.602
		c1.429,0.079,1.807,0.567,1.366,1.926c-0.763,2.354-1.611,4.68-2.409,7.023c-0.159,0.466-0.251,0.955-0.374,1.434
		C340.099,246.634,340.326,246.804,340.553,246.973z M268.024,276.718c0.016,4.808,4.447,8.38,8.935,8.145
		c4.637-0.244,8.153-4.367,7.843-8.802c-0.355-5.075-4.358-7.982-8.531-7.958C271.269,268.132,267.769,272.639,268.024,276.718z"/>
	<path fill-rule="evenodd" clip-rule="evenodd" fill="#FFFFFF" d="M419.568,368.999c0.664,0.689,1.318,1.389,1.995,2.067
		c0.761,0.764,1.584,1.47,2.302,2.271c0.668,0.745,0.514,1.204-0.466,1.424c-5.165,1.155-10.367,1.716-15.543,0.191
		c-5.771-1.699-11.501-3.543-17.244-5.339c-0.987-0.309-1.981-0.628-2.913-1.067c-0.397-0.188-0.642-0.698-0.955-1.062
		c0.341-0.291,0.637-0.709,1.032-0.852c3.709-1.337,7.43-2.642,11.158-3.928c4.291-1.48,8.603-2.905,12.887-4.407
		c3.273-1.147,6.509-2.4,9.775-3.567c3.036-1.085,6.098-2.102,9.137-3.181c3.572-1.269,7.125-2.589,10.697-3.854
		c3.009-1.064,6.039-2.064,9.05-3.122c4.368-1.533,8.725-3.102,13.091-4.639c3.501-1.232,7.018-2.423,10.515-3.665
		c3.609-1.282,7.198-2.622,10.81-3.898c0.936-0.331,1.916-0.55,2.889-0.765c3.377-0.745,5.186,1.518,6.835,3.793
		c0.938,1.294,1.605,2.826,2.163,4.337c0.388,1.049,0.071,2.176-0.863,2.937c-2.069,1.685-4.023,3.575-6.29,4.94
		c-5.539,3.336-11.137,6.604-16.888,9.552c-4.819,2.472-9.864,4.512-14.856,6.633c-3.813,1.621-7.652,3.204-11.563,4.563
		c-4.629,1.61-9.341,2.987-14.037,4.396c-0.602,0.181-1.382,0.091-1.988-0.128c-2.322-0.836-4.606-1.777-6.906-2.675
		c-1.181-0.461-2.364-0.912-3.546-1.367C419.751,368.725,419.66,368.861,419.568,368.999z"/>
	<path fill-rule="evenodd" clip-rule="evenodd" fill="#FFFFFF" d="M236.486,312.649c0.45-1.899,0.823-3.658,1.293-5.391
		c0.282-1.037,0.7-2.039,1.085-3.046c0.435-1.137,0.995-1.341,2.136-0.947c0.976,0.336,1.977,0.608,2.979,0.856
		c0.974,0.241,1.266,0.963,0.488,1.624c-2.581,2.188-4.735,4.734-6.644,7.51c-0.164,0.238-0.576,0.307-0.874,0.454
		C236.783,313.328,236.617,312.948,236.486,312.649z"/>
	<path fill-rule="evenodd" clip-rule="evenodd" fill="#FFFFFF" d="M237.376,333.542c-1.115,0.013-1.514-0.417-1.292-1.353
		c0.487-2.055,0.952-4.116,1.486-6.159c0.098-0.373,0.48-0.672,0.731-1.005c0.317,0.313,0.754,0.571,0.931,0.95
		c0.842,1.8,1.651,3.618,2.375,5.468c0.13,0.332-0.108,1.156-0.333,1.222C239.943,333.057,238.565,333.291,237.376,333.542z"/>
	<path fill-rule="evenodd" clip-rule="evenodd" fill="#FFFFFF" d="M247.828,312.597c0.478-2.229,0.867-4.311,1.385-6.358
		c0.319-1.267,1.046-1.629,2.347-1.429c2.846,0.438,2.799,0.403,1.115,2.745c-0.999,1.387-1.822,2.899-2.719,4.359
		c-0.209,0.34-0.343,0.744-0.611,1.023c-0.275,0.287-0.673,0.458-1.017,0.68C248.148,313.251,247.969,312.885,247.828,312.597z"/>
	<path fill-rule="evenodd" clip-rule="evenodd" fill="#FFFFFF" d="M247.623,332.135c-1.438,0.023-1.97-0.471-1.775-1.616
		c0.186-1.095,0.436-2.187,0.771-3.243c0.124-0.392,0.571-0.681,0.871-1.017c0.293,0.334,0.703,0.621,0.858,1.011
		c0.426,1.066,0.745,2.176,1.107,3.268c0.265,0.797,0.062,1.337-0.826,1.481C248.237,332.083,247.838,332.11,247.623,332.135z"/>
	<path fill-rule="evenodd" clip-rule="evenodd" fill="#FFFFFF" d="M258.821,309.866c0.384-0.993,0.609-1.962,1.12-2.743
		c0.29-0.443,1.024-0.693,1.603-0.812c0.334-0.067,0.931,0.209,1.086,0.502c0.128,0.243-0.128,0.809-0.37,1.105
		c-0.702,0.863-1.461,1.684-2.247,2.473c-0.183,0.184-0.625,0.309-0.83,0.212C258.979,310.506,258.923,310.096,258.821,309.866z"/>
	<path fill-rule="evenodd" clip-rule="evenodd" fill="#FFFFFF" d="M256.375,330.846c-0.577,0.433-0.955,0.934-1.292,0.908
		c-0.342-0.027-0.962-0.672-0.9-0.873c0.151-0.49,0.627-0.88,0.972-1.31C255.497,329.929,255.839,330.286,256.375,330.846z"/>
	<path fill-rule="evenodd" clip-rule="evenodd" d="M268.024,276.718c-0.255-4.079,3.245-8.585,8.247-8.615
		c4.172-0.024,8.175,2.883,8.531,7.958c0.31,4.435-3.206,8.558-7.843,8.802C272.471,285.098,268.04,281.526,268.024,276.718z
		 M276.498,270.015c-3.972,0.135-6.398,2.938-6.591,6.331c-0.191,3.369,2.614,6.562,6.472,6.625
		c3.353,0.055,6.504-2.928,6.591-6.294C283.06,273.133,280.106,270.092,276.498,270.015z"/>
	<path fill-rule="evenodd" clip-rule="evenodd" fill="#FFFFFF" d="M276.498,270.015c3.609,0.078,6.562,3.118,6.472,6.662
		c-0.086,3.367-3.238,6.35-6.591,6.294c-3.858-0.063-6.664-3.257-6.472-6.625C270.099,272.953,272.526,270.15,276.498,270.015z
		 M276.43,280.553c2.489,0.021,4.42-1.943,4.218-4.304c-0.055-0.638-0.193-1.172-1.068-1.083c-1.606,0.163-2.076-0.231-2.18-1.827
		c-0.051-0.778-0.396-1.046-1.144-0.991c-2.254,0.166-4.097,1.979-4.016,3.985C272.347,278.981,273.886,280.531,276.43,280.553z"/>
	<path fill-rule="evenodd" clip-rule="evenodd" d="M276.43,280.553c-2.543-0.021-4.083-1.572-4.19-4.22
		c-0.081-2.006,1.762-3.82,4.016-3.985c0.749-0.055,1.093,0.213,1.144,0.991c0.104,1.596,0.574,1.99,2.18,1.827
		c0.875-0.089,1.013,0.445,1.068,1.083C280.85,278.61,278.919,280.574,276.43,280.553z"/>
</g>
</svg>
